<mxfile host="app.diagrams.net" modified="2023-02-19T11:24:13.324Z" agent="5.0 (Windows NT 10.0; Win64; x64) AppleWebKit/537.36 (KHTML, like Gecko) Chrome/110.0.0.0 Safari/537.36" etag="zY2J5nJI8MdLBIpqPkwY" version="20.8.20" type="github">
  <diagram name="Page-1" id="2YBvvXClWsGukQMizWep">
    <mxGraphModel dx="1434" dy="1856" grid="1" gridSize="10" guides="1" tooltips="1" connect="1" arrows="1" fold="1" page="1" pageScale="1" pageWidth="850" pageHeight="1100" math="0" shadow="0">
      <root>
        <mxCell id="0" />
        <mxCell id="1" parent="0" />
        <mxCell id="aM9ryv3xv72pqoxQDRHE-1" value="사용자" style="shape=umlLifeline;perimeter=lifelinePerimeter;whiteSpace=wrap;html=1;container=0;dropTarget=0;collapsible=0;recursiveResize=0;outlineConnect=0;portConstraint=eastwest;newEdgeStyle={&quot;edgeStyle&quot;:&quot;elbowEdgeStyle&quot;,&quot;elbow&quot;:&quot;vertical&quot;,&quot;curved&quot;:0,&quot;rounded&quot;:0};" parent="1" vertex="1">
          <mxGeometry x="40" y="40" width="100" height="300" as="geometry" />
        </mxCell>
        <mxCell id="aM9ryv3xv72pqoxQDRHE-2" value="" style="html=1;points=[];perimeter=orthogonalPerimeter;outlineConnect=0;targetShapes=umlLifeline;portConstraint=eastwest;newEdgeStyle={&quot;edgeStyle&quot;:&quot;elbowEdgeStyle&quot;,&quot;elbow&quot;:&quot;vertical&quot;,&quot;curved&quot;:0,&quot;rounded&quot;:0};" parent="aM9ryv3xv72pqoxQDRHE-1" vertex="1">
          <mxGeometry x="45" y="70" width="10" height="190" as="geometry" />
        </mxCell>
        <mxCell id="aM9ryv3xv72pqoxQDRHE-5" value="서버" style="shape=umlLifeline;perimeter=lifelinePerimeter;whiteSpace=wrap;html=1;container=0;dropTarget=0;collapsible=0;recursiveResize=0;outlineConnect=0;portConstraint=eastwest;newEdgeStyle={&quot;edgeStyle&quot;:&quot;elbowEdgeStyle&quot;,&quot;elbow&quot;:&quot;vertical&quot;,&quot;curved&quot;:0,&quot;rounded&quot;:0};" parent="1" vertex="1">
          <mxGeometry x="220" y="40" width="100" height="300" as="geometry" />
        </mxCell>
        <mxCell id="aM9ryv3xv72pqoxQDRHE-6" value="" style="html=1;points=[];perimeter=orthogonalPerimeter;outlineConnect=0;targetShapes=umlLifeline;portConstraint=eastwest;newEdgeStyle={&quot;edgeStyle&quot;:&quot;elbowEdgeStyle&quot;,&quot;elbow&quot;:&quot;vertical&quot;,&quot;curved&quot;:0,&quot;rounded&quot;:0};" parent="aM9ryv3xv72pqoxQDRHE-5" vertex="1">
          <mxGeometry x="45" y="80" width="10" height="170" as="geometry" />
        </mxCell>
        <mxCell id="aM9ryv3xv72pqoxQDRHE-7" value="1) 회원가입 정보 입력" style="html=1;verticalAlign=bottom;endArrow=block;edgeStyle=elbowEdgeStyle;elbow=vertical;curved=0;rounded=0;" parent="1" source="aM9ryv3xv72pqoxQDRHE-2" target="aM9ryv3xv72pqoxQDRHE-6" edge="1">
          <mxGeometry relative="1" as="geometry">
            <mxPoint x="195" y="130" as="sourcePoint" />
            <Array as="points">
              <mxPoint x="180" y="120" />
            </Array>
            <mxPoint as="offset" />
          </mxGeometry>
        </mxCell>
        <mxCell id="aM9ryv3xv72pqoxQDRHE-9" value="5) 사용자에게 회원 가입 완료 화면" style="html=1;verticalAlign=bottom;endArrow=block;edgeStyle=elbowEdgeStyle;elbow=vertical;curved=0;rounded=0;" parent="1" target="aM9ryv3xv72pqoxQDRHE-2" edge="1">
          <mxGeometry relative="1" as="geometry">
            <mxPoint x="265" y="177" as="sourcePoint" />
            <Array as="points">
              <mxPoint x="190" y="177" />
            </Array>
            <mxPoint x="100" y="177" as="targetPoint" />
          </mxGeometry>
        </mxCell>
        <mxCell id="haXz-w8fSTuH3WRXW2Te-4" value="&lt;font style=&quot;font-size: 21px;&quot;&gt;회원가입, 로그인 Sequence Diagram&lt;/font&gt;" style="text;html=1;strokeColor=none;fillColor=none;align=center;verticalAlign=middle;whiteSpace=wrap;rounded=0;" vertex="1" parent="1">
          <mxGeometry x="70" y="-60" width="370" height="60" as="geometry" />
        </mxCell>
        <mxCell id="haXz-w8fSTuH3WRXW2Te-5" value="DB" style="shape=umlLifeline;perimeter=lifelinePerimeter;whiteSpace=wrap;html=1;container=0;dropTarget=0;collapsible=0;recursiveResize=0;outlineConnect=0;portConstraint=eastwest;newEdgeStyle={&quot;edgeStyle&quot;:&quot;elbowEdgeStyle&quot;,&quot;elbow&quot;:&quot;vertical&quot;,&quot;curved&quot;:0,&quot;rounded&quot;:0};" vertex="1" parent="1">
          <mxGeometry x="400" y="40" width="100" height="300" as="geometry" />
        </mxCell>
        <mxCell id="haXz-w8fSTuH3WRXW2Te-6" value="" style="html=1;points=[];perimeter=orthogonalPerimeter;outlineConnect=0;targetShapes=umlLifeline;portConstraint=eastwest;newEdgeStyle={&quot;edgeStyle&quot;:&quot;elbowEdgeStyle&quot;,&quot;elbow&quot;:&quot;vertical&quot;,&quot;curved&quot;:0,&quot;rounded&quot;:0};" vertex="1" parent="haXz-w8fSTuH3WRXW2Te-5">
          <mxGeometry x="45" y="80" width="10" height="170" as="geometry" />
        </mxCell>
        <mxCell id="haXz-w8fSTuH3WRXW2Te-7" value="2) 입력 데이터 DB 전송" style="html=1;verticalAlign=bottom;endArrow=block;edgeStyle=elbowEdgeStyle;elbow=vertical;curved=0;rounded=0;" edge="1" parent="1">
          <mxGeometry relative="1" as="geometry">
            <mxPoint x="275" y="130" as="sourcePoint" />
            <Array as="points">
              <mxPoint x="360" y="130" />
            </Array>
            <mxPoint x="445" y="130" as="targetPoint" />
            <mxPoint as="offset" />
          </mxGeometry>
        </mxCell>
        <mxCell id="haXz-w8fSTuH3WRXW2Te-9" value="3) DB 저장" style="html=1;verticalAlign=bottom;endArrow=block;edgeStyle=elbowEdgeStyle;rounded=0;" edge="1" parent="1">
          <mxGeometry x="-0.3738" y="6" relative="1" as="geometry">
            <mxPoint x="456.5" y="136" as="sourcePoint" />
            <Array as="points">
              <mxPoint x="490" y="140" />
            </Array>
            <mxPoint x="456.5" y="156" as="targetPoint" />
            <mxPoint as="offset" />
          </mxGeometry>
        </mxCell>
        <mxCell id="haXz-w8fSTuH3WRXW2Te-12" value="4) DB 저장 완료" style="html=1;verticalAlign=bottom;endArrow=block;edgeStyle=elbowEdgeStyle;elbow=vertical;curved=0;rounded=0;" edge="1" parent="1">
          <mxGeometry relative="1" as="geometry">
            <mxPoint x="440" y="170" as="sourcePoint" />
            <Array as="points">
              <mxPoint x="365" y="170" />
            </Array>
            <mxPoint x="275" y="170" as="targetPoint" />
          </mxGeometry>
        </mxCell>
        <mxCell id="haXz-w8fSTuH3WRXW2Te-17" value="10) 사용자에게 로그인 완료 화면" style="html=1;verticalAlign=bottom;endArrow=block;edgeStyle=elbowEdgeStyle;elbow=vertical;curved=0;rounded=0;" edge="1" parent="1">
          <mxGeometry relative="1" as="geometry">
            <mxPoint x="264" y="278" as="sourcePoint" />
            <Array as="points">
              <mxPoint x="189" y="278" />
            </Array>
            <mxPoint x="94" y="278" as="targetPoint" />
            <mxPoint as="offset" />
          </mxGeometry>
        </mxCell>
        <mxCell id="haXz-w8fSTuH3WRXW2Te-18" value="6) 로그인 정보 입력" style="html=1;verticalAlign=bottom;endArrow=block;edgeStyle=elbowEdgeStyle;elbow=vertical;curved=0;rounded=0;" edge="1" parent="1">
          <mxGeometry relative="1" as="geometry">
            <mxPoint x="95" y="220" as="sourcePoint" />
            <Array as="points">
              <mxPoint x="180" y="220" />
            </Array>
            <mxPoint x="265" y="220" as="targetPoint" />
            <mxPoint as="offset" />
          </mxGeometry>
        </mxCell>
        <mxCell id="haXz-w8fSTuH3WRXW2Te-19" value="7) 입력 데이터 DB 전송" style="html=1;verticalAlign=bottom;endArrow=block;edgeStyle=elbowEdgeStyle;elbow=vertical;curved=0;rounded=0;" edge="1" parent="1">
          <mxGeometry relative="1" as="geometry">
            <mxPoint x="275" y="230" as="sourcePoint" />
            <Array as="points">
              <mxPoint x="360" y="230" />
            </Array>
            <mxPoint x="445" y="230" as="targetPoint" />
            <mxPoint as="offset" />
          </mxGeometry>
        </mxCell>
        <mxCell id="haXz-w8fSTuH3WRXW2Te-20" value="8) DB 확인" style="html=1;verticalAlign=bottom;endArrow=block;edgeStyle=elbowEdgeStyle;rounded=0;" edge="1" parent="1">
          <mxGeometry x="-0.3738" y="6" relative="1" as="geometry">
            <mxPoint x="456.5" y="236" as="sourcePoint" />
            <Array as="points">
              <mxPoint x="490" y="240" />
            </Array>
            <mxPoint x="456.5" y="256" as="targetPoint" />
            <mxPoint as="offset" />
          </mxGeometry>
        </mxCell>
        <mxCell id="haXz-w8fSTuH3WRXW2Te-21" value="9) DB 정보 존재" style="html=1;verticalAlign=bottom;endArrow=block;edgeStyle=elbowEdgeStyle;elbow=vertical;curved=0;rounded=0;" edge="1" parent="1">
          <mxGeometry relative="1" as="geometry">
            <mxPoint x="440" y="270" as="sourcePoint" />
            <Array as="points">
              <mxPoint x="365" y="270" />
            </Array>
            <mxPoint x="275" y="270" as="targetPoint" />
          </mxGeometry>
        </mxCell>
        <mxCell id="haXz-w8fSTuH3WRXW2Te-22" value="사용자" style="shape=umlLifeline;perimeter=lifelinePerimeter;whiteSpace=wrap;html=1;container=0;dropTarget=0;collapsible=0;recursiveResize=0;outlineConnect=0;portConstraint=eastwest;newEdgeStyle={&quot;edgeStyle&quot;:&quot;elbowEdgeStyle&quot;,&quot;elbow&quot;:&quot;vertical&quot;,&quot;curved&quot;:0,&quot;rounded&quot;:0};" vertex="1" parent="1">
          <mxGeometry x="40" y="520" width="100" height="300" as="geometry" />
        </mxCell>
        <mxCell id="haXz-w8fSTuH3WRXW2Te-23" value="" style="html=1;points=[];perimeter=orthogonalPerimeter;outlineConnect=0;targetShapes=umlLifeline;portConstraint=eastwest;newEdgeStyle={&quot;edgeStyle&quot;:&quot;elbowEdgeStyle&quot;,&quot;elbow&quot;:&quot;vertical&quot;,&quot;curved&quot;:0,&quot;rounded&quot;:0};" vertex="1" parent="haXz-w8fSTuH3WRXW2Te-22">
          <mxGeometry x="45" y="70" width="10" height="190" as="geometry" />
        </mxCell>
        <mxCell id="haXz-w8fSTuH3WRXW2Te-24" value="서버" style="shape=umlLifeline;perimeter=lifelinePerimeter;whiteSpace=wrap;html=1;container=0;dropTarget=0;collapsible=0;recursiveResize=0;outlineConnect=0;portConstraint=eastwest;newEdgeStyle={&quot;edgeStyle&quot;:&quot;elbowEdgeStyle&quot;,&quot;elbow&quot;:&quot;vertical&quot;,&quot;curved&quot;:0,&quot;rounded&quot;:0};" vertex="1" parent="1">
          <mxGeometry x="220" y="520" width="100" height="300" as="geometry" />
        </mxCell>
        <mxCell id="haXz-w8fSTuH3WRXW2Te-25" value="" style="html=1;points=[];perimeter=orthogonalPerimeter;outlineConnect=0;targetShapes=umlLifeline;portConstraint=eastwest;newEdgeStyle={&quot;edgeStyle&quot;:&quot;elbowEdgeStyle&quot;,&quot;elbow&quot;:&quot;vertical&quot;,&quot;curved&quot;:0,&quot;rounded&quot;:0};" vertex="1" parent="haXz-w8fSTuH3WRXW2Te-24">
          <mxGeometry x="45" y="80" width="10" height="170" as="geometry" />
        </mxCell>
        <mxCell id="haXz-w8fSTuH3WRXW2Te-26" value="1) 친구 추가 정보 입력" style="html=1;verticalAlign=bottom;endArrow=block;edgeStyle=elbowEdgeStyle;elbow=vertical;curved=0;rounded=0;" edge="1" parent="1" source="haXz-w8fSTuH3WRXW2Te-23" target="haXz-w8fSTuH3WRXW2Te-25">
          <mxGeometry relative="1" as="geometry">
            <mxPoint x="195" y="610" as="sourcePoint" />
            <Array as="points">
              <mxPoint x="180" y="600" />
            </Array>
            <mxPoint as="offset" />
          </mxGeometry>
        </mxCell>
        <mxCell id="haXz-w8fSTuH3WRXW2Te-27" value="5) 사용자에게 친구 추가 완료 alert" style="html=1;verticalAlign=bottom;endArrow=block;edgeStyle=elbowEdgeStyle;elbow=vertical;curved=0;rounded=0;" edge="1" parent="1" target="haXz-w8fSTuH3WRXW2Te-23">
          <mxGeometry relative="1" as="geometry">
            <mxPoint x="265" y="657" as="sourcePoint" />
            <Array as="points">
              <mxPoint x="190" y="657" />
            </Array>
            <mxPoint x="100" y="657" as="targetPoint" />
          </mxGeometry>
        </mxCell>
        <mxCell id="haXz-w8fSTuH3WRXW2Te-28" value="&lt;font style=&quot;font-size: 21px;&quot;&gt;친구 추가, 친구 목록 조회 Sequence Diagram&lt;/font&gt;" style="text;html=1;strokeColor=none;fillColor=none;align=center;verticalAlign=middle;whiteSpace=wrap;rounded=0;" vertex="1" parent="1">
          <mxGeometry x="70" y="420" width="370" height="60" as="geometry" />
        </mxCell>
        <mxCell id="haXz-w8fSTuH3WRXW2Te-29" value="DB" style="shape=umlLifeline;perimeter=lifelinePerimeter;whiteSpace=wrap;html=1;container=0;dropTarget=0;collapsible=0;recursiveResize=0;outlineConnect=0;portConstraint=eastwest;newEdgeStyle={&quot;edgeStyle&quot;:&quot;elbowEdgeStyle&quot;,&quot;elbow&quot;:&quot;vertical&quot;,&quot;curved&quot;:0,&quot;rounded&quot;:0};" vertex="1" parent="1">
          <mxGeometry x="400" y="520" width="100" height="300" as="geometry" />
        </mxCell>
        <mxCell id="haXz-w8fSTuH3WRXW2Te-30" value="" style="html=1;points=[];perimeter=orthogonalPerimeter;outlineConnect=0;targetShapes=umlLifeline;portConstraint=eastwest;newEdgeStyle={&quot;edgeStyle&quot;:&quot;elbowEdgeStyle&quot;,&quot;elbow&quot;:&quot;vertical&quot;,&quot;curved&quot;:0,&quot;rounded&quot;:0};" vertex="1" parent="haXz-w8fSTuH3WRXW2Te-29">
          <mxGeometry x="45" y="80" width="10" height="170" as="geometry" />
        </mxCell>
        <mxCell id="haXz-w8fSTuH3WRXW2Te-31" value="2) 입력 데이터 DB 전송" style="html=1;verticalAlign=bottom;endArrow=block;edgeStyle=elbowEdgeStyle;elbow=vertical;curved=0;rounded=0;" edge="1" parent="1">
          <mxGeometry relative="1" as="geometry">
            <mxPoint x="275" y="610" as="sourcePoint" />
            <Array as="points">
              <mxPoint x="360" y="610" />
            </Array>
            <mxPoint x="445" y="610" as="targetPoint" />
            <mxPoint as="offset" />
          </mxGeometry>
        </mxCell>
        <mxCell id="haXz-w8fSTuH3WRXW2Te-32" value="3) DB 저장" style="html=1;verticalAlign=bottom;endArrow=block;edgeStyle=elbowEdgeStyle;rounded=0;" edge="1" parent="1">
          <mxGeometry x="-0.3738" y="6" relative="1" as="geometry">
            <mxPoint x="456.5" y="616" as="sourcePoint" />
            <Array as="points">
              <mxPoint x="490" y="620" />
            </Array>
            <mxPoint x="456.5" y="636" as="targetPoint" />
            <mxPoint as="offset" />
          </mxGeometry>
        </mxCell>
        <mxCell id="haXz-w8fSTuH3WRXW2Te-33" value="4) DB 저장 완료" style="html=1;verticalAlign=bottom;endArrow=block;edgeStyle=elbowEdgeStyle;elbow=vertical;curved=0;rounded=0;" edge="1" parent="1">
          <mxGeometry relative="1" as="geometry">
            <mxPoint x="440" y="650" as="sourcePoint" />
            <Array as="points">
              <mxPoint x="365" y="650" />
            </Array>
            <mxPoint x="275" y="650" as="targetPoint" />
          </mxGeometry>
        </mxCell>
        <mxCell id="haXz-w8fSTuH3WRXW2Te-34" value="10) 사용자에게 친구 목록 제공" style="html=1;verticalAlign=bottom;endArrow=block;edgeStyle=elbowEdgeStyle;elbow=vertical;curved=0;rounded=0;" edge="1" parent="1">
          <mxGeometry relative="1" as="geometry">
            <mxPoint x="264" y="758" as="sourcePoint" />
            <Array as="points">
              <mxPoint x="189" y="758" />
            </Array>
            <mxPoint x="94" y="758" as="targetPoint" />
            <mxPoint as="offset" />
          </mxGeometry>
        </mxCell>
        <mxCell id="haXz-w8fSTuH3WRXW2Te-35" value="6) 친구 목록 클릭" style="html=1;verticalAlign=bottom;endArrow=block;edgeStyle=elbowEdgeStyle;elbow=vertical;curved=0;rounded=0;" edge="1" parent="1">
          <mxGeometry relative="1" as="geometry">
            <mxPoint x="95" y="700" as="sourcePoint" />
            <Array as="points">
              <mxPoint x="180" y="700" />
            </Array>
            <mxPoint x="265" y="700" as="targetPoint" />
            <mxPoint as="offset" />
          </mxGeometry>
        </mxCell>
        <mxCell id="haXz-w8fSTuH3WRXW2Te-36" value="7) 사용자 ID 전달" style="html=1;verticalAlign=bottom;endArrow=block;edgeStyle=elbowEdgeStyle;elbow=vertical;curved=0;rounded=0;" edge="1" parent="1">
          <mxGeometry relative="1" as="geometry">
            <mxPoint x="275" y="710" as="sourcePoint" />
            <Array as="points">
              <mxPoint x="360" y="710" />
            </Array>
            <mxPoint x="445" y="710" as="targetPoint" />
            <mxPoint as="offset" />
          </mxGeometry>
        </mxCell>
        <mxCell id="haXz-w8fSTuH3WRXW2Te-37" value="8) DB 확인" style="html=1;verticalAlign=bottom;endArrow=block;edgeStyle=elbowEdgeStyle;rounded=0;" edge="1" parent="1">
          <mxGeometry x="-0.3738" y="6" relative="1" as="geometry">
            <mxPoint x="456.5" y="716" as="sourcePoint" />
            <Array as="points">
              <mxPoint x="490" y="720" />
            </Array>
            <mxPoint x="456.5" y="736" as="targetPoint" />
            <mxPoint as="offset" />
          </mxGeometry>
        </mxCell>
        <mxCell id="haXz-w8fSTuH3WRXW2Te-38" value="9) DB 정보 존재" style="html=1;verticalAlign=bottom;endArrow=block;edgeStyle=elbowEdgeStyle;elbow=vertical;curved=0;rounded=0;" edge="1" parent="1">
          <mxGeometry x="0.0061" relative="1" as="geometry">
            <mxPoint x="440" y="750" as="sourcePoint" />
            <Array as="points">
              <mxPoint x="365" y="750" />
            </Array>
            <mxPoint x="275" y="750" as="targetPoint" />
            <mxPoint as="offset" />
          </mxGeometry>
        </mxCell>
        <mxCell id="haXz-w8fSTuH3WRXW2Te-39" value="사용자" style="shape=umlLifeline;perimeter=lifelinePerimeter;whiteSpace=wrap;html=1;container=0;dropTarget=0;collapsible=0;recursiveResize=0;outlineConnect=0;portConstraint=eastwest;newEdgeStyle={&quot;edgeStyle&quot;:&quot;elbowEdgeStyle&quot;,&quot;elbow&quot;:&quot;vertical&quot;,&quot;curved&quot;:0,&quot;rounded&quot;:0};" vertex="1" parent="1">
          <mxGeometry x="40" y="990" width="100" height="300" as="geometry" />
        </mxCell>
        <mxCell id="haXz-w8fSTuH3WRXW2Te-40" value="" style="html=1;points=[];perimeter=orthogonalPerimeter;outlineConnect=0;targetShapes=umlLifeline;portConstraint=eastwest;newEdgeStyle={&quot;edgeStyle&quot;:&quot;elbowEdgeStyle&quot;,&quot;elbow&quot;:&quot;vertical&quot;,&quot;curved&quot;:0,&quot;rounded&quot;:0};" vertex="1" parent="haXz-w8fSTuH3WRXW2Te-39">
          <mxGeometry x="45" y="70" width="10" height="190" as="geometry" />
        </mxCell>
        <mxCell id="haXz-w8fSTuH3WRXW2Te-41" value="뱅킹 서버" style="shape=umlLifeline;perimeter=lifelinePerimeter;whiteSpace=wrap;html=1;container=0;dropTarget=0;collapsible=0;recursiveResize=0;outlineConnect=0;portConstraint=eastwest;newEdgeStyle={&quot;edgeStyle&quot;:&quot;elbowEdgeStyle&quot;,&quot;elbow&quot;:&quot;vertical&quot;,&quot;curved&quot;:0,&quot;rounded&quot;:0};" vertex="1" parent="1">
          <mxGeometry x="220" y="990" width="100" height="300" as="geometry" />
        </mxCell>
        <mxCell id="haXz-w8fSTuH3WRXW2Te-42" value="" style="html=1;points=[];perimeter=orthogonalPerimeter;outlineConnect=0;targetShapes=umlLifeline;portConstraint=eastwest;newEdgeStyle={&quot;edgeStyle&quot;:&quot;elbowEdgeStyle&quot;,&quot;elbow&quot;:&quot;vertical&quot;,&quot;curved&quot;:0,&quot;rounded&quot;:0};" vertex="1" parent="haXz-w8fSTuH3WRXW2Te-41">
          <mxGeometry x="45" y="80" width="10" height="170" as="geometry" />
        </mxCell>
        <mxCell id="haXz-w8fSTuH3WRXW2Te-43" value="1) 이체 정보 입력" style="html=1;verticalAlign=bottom;endArrow=block;edgeStyle=elbowEdgeStyle;elbow=vertical;curved=0;rounded=0;" edge="1" parent="1" source="haXz-w8fSTuH3WRXW2Te-40" target="haXz-w8fSTuH3WRXW2Te-42">
          <mxGeometry relative="1" as="geometry">
            <mxPoint x="195" y="1080" as="sourcePoint" />
            <Array as="points">
              <mxPoint x="180" y="1070" />
            </Array>
            <mxPoint as="offset" />
          </mxGeometry>
        </mxCell>
        <mxCell id="haXz-w8fSTuH3WRXW2Te-44" value="5) 사용자에게 &lt;br&gt;계좌 이체 완료 alert" style="html=1;verticalAlign=bottom;endArrow=block;edgeStyle=elbowEdgeStyle;elbow=vertical;curved=0;rounded=0;" edge="1" parent="1" target="haXz-w8fSTuH3WRXW2Te-40">
          <mxGeometry relative="1" as="geometry">
            <mxPoint x="265" y="1127" as="sourcePoint" />
            <Array as="points">
              <mxPoint x="190" y="1127" />
            </Array>
            <mxPoint x="100" y="1127" as="targetPoint" />
          </mxGeometry>
        </mxCell>
        <mxCell id="haXz-w8fSTuH3WRXW2Te-45" value="&lt;font style=&quot;font-size: 21px;&quot;&gt;계좌 이체, 계좌 조회 Sequence Diagram&lt;/font&gt;" style="text;html=1;strokeColor=none;fillColor=none;align=center;verticalAlign=middle;whiteSpace=wrap;rounded=0;" vertex="1" parent="1">
          <mxGeometry x="70" y="890" width="370" height="60" as="geometry" />
        </mxCell>
        <mxCell id="haXz-w8fSTuH3WRXW2Te-46" value="DB" style="shape=umlLifeline;perimeter=lifelinePerimeter;whiteSpace=wrap;html=1;container=0;dropTarget=0;collapsible=0;recursiveResize=0;outlineConnect=0;portConstraint=eastwest;newEdgeStyle={&quot;edgeStyle&quot;:&quot;elbowEdgeStyle&quot;,&quot;elbow&quot;:&quot;vertical&quot;,&quot;curved&quot;:0,&quot;rounded&quot;:0};" vertex="1" parent="1">
          <mxGeometry x="400" y="990" width="100" height="300" as="geometry" />
        </mxCell>
        <mxCell id="haXz-w8fSTuH3WRXW2Te-47" value="" style="html=1;points=[];perimeter=orthogonalPerimeter;outlineConnect=0;targetShapes=umlLifeline;portConstraint=eastwest;newEdgeStyle={&quot;edgeStyle&quot;:&quot;elbowEdgeStyle&quot;,&quot;elbow&quot;:&quot;vertical&quot;,&quot;curved&quot;:0,&quot;rounded&quot;:0};" vertex="1" parent="haXz-w8fSTuH3WRXW2Te-46">
          <mxGeometry x="45" y="80" width="10" height="170" as="geometry" />
        </mxCell>
        <mxCell id="haXz-w8fSTuH3WRXW2Te-48" value="2) 입력 데이터 DB 전송" style="html=1;verticalAlign=bottom;endArrow=block;edgeStyle=elbowEdgeStyle;elbow=vertical;curved=0;rounded=0;" edge="1" parent="1">
          <mxGeometry relative="1" as="geometry">
            <mxPoint x="275" y="1080" as="sourcePoint" />
            <Array as="points">
              <mxPoint x="360" y="1080" />
            </Array>
            <mxPoint x="445" y="1080" as="targetPoint" />
            <mxPoint as="offset" />
          </mxGeometry>
        </mxCell>
        <mxCell id="haXz-w8fSTuH3WRXW2Te-49" value="3) DB 저장" style="html=1;verticalAlign=bottom;endArrow=block;edgeStyle=elbowEdgeStyle;rounded=0;" edge="1" parent="1">
          <mxGeometry x="-0.3738" y="6" relative="1" as="geometry">
            <mxPoint x="456.5" y="1086" as="sourcePoint" />
            <Array as="points">
              <mxPoint x="490" y="1090" />
            </Array>
            <mxPoint x="456.5" y="1106" as="targetPoint" />
            <mxPoint as="offset" />
          </mxGeometry>
        </mxCell>
        <mxCell id="haXz-w8fSTuH3WRXW2Te-50" value="4) DB 저장 완료" style="html=1;verticalAlign=bottom;endArrow=block;edgeStyle=elbowEdgeStyle;elbow=vertical;curved=0;rounded=0;" edge="1" parent="1">
          <mxGeometry relative="1" as="geometry">
            <mxPoint x="440" y="1120" as="sourcePoint" />
            <Array as="points">
              <mxPoint x="365" y="1120" />
            </Array>
            <mxPoint x="275" y="1120" as="targetPoint" />
          </mxGeometry>
        </mxCell>
        <mxCell id="haXz-w8fSTuH3WRXW2Te-51" value="11) 사용자에게 계좌 조회 제공" style="html=1;verticalAlign=bottom;endArrow=block;edgeStyle=elbowEdgeStyle;elbow=vertical;curved=0;rounded=0;" edge="1" parent="1">
          <mxGeometry relative="1" as="geometry">
            <mxPoint x="264" y="1228" as="sourcePoint" />
            <Array as="points">
              <mxPoint x="189" y="1228" />
            </Array>
            <mxPoint x="94" y="1228" as="targetPoint" />
            <mxPoint as="offset" />
          </mxGeometry>
        </mxCell>
        <mxCell id="haXz-w8fSTuH3WRXW2Te-52" value="7) 계좌 조회 클릭" style="html=1;verticalAlign=bottom;endArrow=block;edgeStyle=elbowEdgeStyle;elbow=vertical;curved=0;rounded=0;" edge="1" parent="1">
          <mxGeometry relative="1" as="geometry">
            <mxPoint x="95" y="1170" as="sourcePoint" />
            <Array as="points">
              <mxPoint x="180" y="1170" />
            </Array>
            <mxPoint x="265" y="1170" as="targetPoint" />
            <mxPoint as="offset" />
          </mxGeometry>
        </mxCell>
        <mxCell id="haXz-w8fSTuH3WRXW2Te-53" value="8) 사용자의 계좌 ID 전달" style="html=1;verticalAlign=bottom;endArrow=block;edgeStyle=elbowEdgeStyle;elbow=vertical;curved=0;rounded=0;" edge="1" parent="1">
          <mxGeometry relative="1" as="geometry">
            <mxPoint x="275" y="1180" as="sourcePoint" />
            <Array as="points">
              <mxPoint x="360" y="1180" />
            </Array>
            <mxPoint x="445" y="1180" as="targetPoint" />
            <mxPoint as="offset" />
          </mxGeometry>
        </mxCell>
        <mxCell id="haXz-w8fSTuH3WRXW2Te-54" value="9) DB 확인" style="html=1;verticalAlign=bottom;endArrow=block;edgeStyle=elbowEdgeStyle;rounded=0;" edge="1" parent="1">
          <mxGeometry x="-0.3738" y="6" relative="1" as="geometry">
            <mxPoint x="456.5" y="1186" as="sourcePoint" />
            <Array as="points">
              <mxPoint x="490" y="1190" />
            </Array>
            <mxPoint x="456.5" y="1206" as="targetPoint" />
            <mxPoint as="offset" />
          </mxGeometry>
        </mxCell>
        <mxCell id="haXz-w8fSTuH3WRXW2Te-55" value="10) DB 정보 존재" style="html=1;verticalAlign=bottom;endArrow=block;edgeStyle=elbowEdgeStyle;elbow=vertical;curved=0;rounded=0;" edge="1" parent="1">
          <mxGeometry x="0.0061" relative="1" as="geometry">
            <mxPoint x="440" y="1220" as="sourcePoint" />
            <Array as="points">
              <mxPoint x="365" y="1220" />
            </Array>
            <mxPoint x="275" y="1220" as="targetPoint" />
            <mxPoint as="offset" />
          </mxGeometry>
        </mxCell>
        <mxCell id="haXz-w8fSTuH3WRXW2Te-56" value="알람 서버" style="shape=umlLifeline;perimeter=lifelinePerimeter;whiteSpace=wrap;html=1;container=0;dropTarget=0;collapsible=0;recursiveResize=0;outlineConnect=0;portConstraint=eastwest;newEdgeStyle={&quot;edgeStyle&quot;:&quot;elbowEdgeStyle&quot;,&quot;elbow&quot;:&quot;vertical&quot;,&quot;curved&quot;:0,&quot;rounded&quot;:0};" vertex="1" parent="1">
          <mxGeometry x="580" y="990" width="100" height="300" as="geometry" />
        </mxCell>
        <mxCell id="haXz-w8fSTuH3WRXW2Te-57" value="" style="html=1;points=[];perimeter=orthogonalPerimeter;outlineConnect=0;targetShapes=umlLifeline;portConstraint=eastwest;newEdgeStyle={&quot;edgeStyle&quot;:&quot;elbowEdgeStyle&quot;,&quot;elbow&quot;:&quot;vertical&quot;,&quot;curved&quot;:0,&quot;rounded&quot;:0};" vertex="1" parent="haXz-w8fSTuH3WRXW2Te-56">
          <mxGeometry x="45" y="80" width="10" height="170" as="geometry" />
        </mxCell>
        <mxCell id="haXz-w8fSTuH3WRXW2Te-58" value="6) 알림 요청 전송" style="html=1;verticalAlign=bottom;endArrow=block;edgeStyle=elbowEdgeStyle;elbow=vertical;curved=0;rounded=0;" edge="1" parent="1" target="haXz-w8fSTuH3WRXW2Te-56">
          <mxGeometry relative="1" as="geometry">
            <mxPoint x="276" y="1138.5" as="sourcePoint" />
            <Array as="points">
              <mxPoint x="361" y="1138.5" />
            </Array>
            <mxPoint x="446" y="1138.5" as="targetPoint" />
            <mxPoint as="offset" />
          </mxGeometry>
        </mxCell>
      </root>
    </mxGraphModel>
  </diagram>
</mxfile>
